<svg width="126" height="160" viewBox="0 0 126 160" fill="none" xmlns="http://www.w3.org/2000/svg">
<path d="M117.619 4.76C120.735 7.02906 122.713 11.086 123.23 17.0571C123.746 23.0201 122.766 30.5694 120.298 39.2513C115.368 56.5951 104.661 77.9237 89.2797 99.0446C73.8988 120.165 56.8863 136.902 41.8925 146.916C34.387 151.929 27.503 155.18 21.6692 156.518C15.8276 157.859 11.3595 157.222 8.24371 154.953C5.12803 152.684 3.15121 148.627 2.63395 142.656C2.11739 136.693 3.09815 129.144 5.5658 120.462C10.4954 103.118 21.2027 81.7901 36.5835 60.6694C51.9645 39.5485 68.9774 22.8116 83.9713 12.7969C91.4769 7.78375 98.3607 4.53338 104.195 3.19489C110.036 1.85465 114.503 2.49109 117.619 4.76Z" fill="#D9D9D9" stroke="black" stroke-width="5"/>
</svg>
